<svg width="46" height="44" viewBox="0 0 46 44" fill="none" xmlns="http://www.w3.org/2000/svg">
<path fill-rule="evenodd" clip-rule="evenodd" d="M23 0.110107C10.5687 0.110107 0.5 10.1789 0.5 22.6101C0.5 32.5664 6.94062 40.9757 15.8844 43.957C17.0094 44.1539 17.4312 43.4789 17.4312 42.8882C17.4312 42.3539 17.4031 40.582 17.4031 38.6976C11.75 39.7382 10.2875 37.3195 9.8375 36.0539C9.58437 35.407 8.4875 33.4101 7.53125 32.8757C6.74375 32.4539 5.61875 31.4132 7.50313 31.3851C9.275 31.357 10.5406 33.0164 10.9625 33.6914C12.9875 37.0945 16.2219 36.1382 17.5156 35.5476C17.7125 34.0851 18.3031 33.1007 18.95 32.5382C13.9437 31.9757 8.7125 30.0351 8.7125 21.4289C8.7125 18.982 9.58438 16.957 11.0188 15.382C10.7938 14.8195 10.0062 12.5132 11.2437 9.41948C11.2437 9.41948 13.1281 8.82886 17.4312 11.7257C19.2312 11.2195 21.1438 10.9664 23.0563 10.9664C24.9688 10.9664 26.8813 11.2195 28.6813 11.7257C32.9844 8.80073 34.8688 9.41948 34.8688 9.41948C36.1063 12.5132 35.3188 14.8195 35.0938 15.382C36.5281 16.957 37.4 18.9539 37.4 21.4289C37.4 30.0632 32.1406 31.9757 27.1344 32.5382C27.95 33.2414 28.6531 34.5914 28.6531 36.7007C28.6531 39.7101 28.625 42.1289 28.625 42.8882C28.625 43.4789 29.0469 44.182 30.1719 43.957C39.0594 40.9757 45.5 32.5382 45.5 22.6101C45.5 10.1789 35.4313 0.110107 23 0.110107Z" fill="white"/>
</svg>
